<svg width="120" height="108" viewBox="0 0 120 108" fill="none" xmlns="http://www.w3.org/2000/svg">
<g opacity="0.7">
<path fill-rule="evenodd" clip-rule="evenodd" d="M61.5 94C81.1061 94 97 78.1061 97 58.5C97 38.8939 81.1061 23 61.5 23C41.8939 23 26 38.8939 26 58.5C26 78.1061 41.8939 94 61.5 94ZM61 82C74.2548 82 85 71.2548 85 58C85 44.7452 74.2548 34 61 34C47.7452 34 37 44.7452 37 58C37 71.2548 47.7452 82 61 82Z" fill="url(#paint0_linear_65_16761)"/>
<circle cx="61.5" cy="58.5" r="47.5" stroke="#3873FF" stroke-width="4"/>
<circle cx="61" cy="58" r="16" fill="url(#paint1_linear_65_16761)"/>
<path d="M65 54.5196L100.17 19.3499" stroke="white" stroke-width="3" stroke-linecap="round"/>
<path fill-rule="evenodd" clip-rule="evenodd" d="M61 62.8499C58.2386 62.8499 56 60.6113 56 57.8499C56 55.0884 58.2386 52.8499 61 52.8499C63.7614 52.8499 66 55.0884 66 57.8499C66 60.6113 63.7614 62.8499 61 62.8499Z" stroke="white" stroke-width="3"/>
<path fill-rule="evenodd" clip-rule="evenodd" d="M110.052 19.8517H99.8499V9.65011L107.5 2.00001V12.2016H117.706L110.052 19.8517Z" stroke="white" stroke-width="3" stroke-linejoin="round"/>
<rect opacity="0.1" x="6" y="97.8762" width="10.381" height="10.381" transform="rotate(-90 6 97.8762)" fill="#3CE1CD"/>
<rect opacity="0.1" y="82.3809" width="10.381" height="10.381" transform="rotate(-90 0 82.3809)" fill="#3CE1CD"/>
<rect opacity="0.4" x="19.4952" y="97.8762" width="10.381" height="10.381" transform="rotate(-90 19.4952 97.8762)" fill="#3CE1CD"/>
<rect opacity="0.4" x="13.4952" y="82.3809" width="10.381" height="10.381" transform="rotate(-90 13.4952 82.3809)" fill="#3CE1CD"/>
<rect opacity="0.7" x="32.9905" y="97.8762" width="10.381" height="10.381" transform="rotate(-90 32.9905 97.8762)" fill="#3CE1CD"/>
<rect opacity="0.7" x="26.9905" y="82.3809" width="10.381" height="10.381" transform="rotate(-90 26.9905 82.3809)" fill="#3CE1CD"/>
<rect x="46.4857" y="97.8762" width="10.381" height="10.381" transform="rotate(-90 46.4857 97.8762)" fill="#3CE1CD"/>
<rect x="40.4857" y="82.3809" width="10.381" height="10.381" transform="rotate(-90 40.4857 82.3809)" fill="#3CE1CD"/>
</g>
<defs>
<linearGradient id="paint0_linear_65_16761" x1="61.5" y1="23" x2="61.5" y2="94" gradientUnits="userSpaceOnUse">
<stop stop-color="#3873FF"/>
<stop offset="1" stop-color="#3873FF" stop-opacity="0"/>
</linearGradient>
<linearGradient id="paint1_linear_65_16761" x1="61" y1="42" x2="61" y2="74" gradientUnits="userSpaceOnUse">
<stop stop-color="#3873FF"/>
<stop offset="1" stop-color="#3873FF" stop-opacity="0"/>
</linearGradient>
</defs>
</svg>
