<svg width="140" height="140" viewBox="0 0 140 140" fill="none" xmlns="http://www.w3.org/2000/svg">
<g opacity="0.7">
<circle cx="70" cy="68.9999" r="36.4286" stroke="url(#paint0_linear_65_16781)" stroke-width="5"/>
<path opacity="0.3" fill-rule="evenodd" clip-rule="evenodd" d="M52.9829 44.7005C54.3898 43.7136 55.8868 42.8454 57.4594 42.1108L59.6619 46.8259C58.3664 47.431 57.1322 48.1466 55.9715 48.9609L52.9829 44.7005Z" fill="#3CE1CD"/>
<path opacity="0.4" fill-rule="evenodd" clip-rule="evenodd" d="M43.1108 56.4594C43.8454 54.8868 44.7136 53.3898 45.7005 51.9829L49.9609 54.9715C49.1466 56.1322 48.431 57.3664 47.8259 58.6618L43.1108 56.4594Z" fill="#3CE1CD"/>
<path opacity="0.6" fill-rule="evenodd" clip-rule="evenodd" d="M45.7005 86.0168C44.7136 84.6099 43.8454 83.1129 43.1108 81.5403L47.8259 79.3379C48.431 80.6334 49.1466 81.8675 49.9609 83.0282L45.7005 86.0168Z" fill="#3CE1CD"/>
<path opacity="0.5" fill-rule="evenodd" clip-rule="evenodd" d="M40.3368 68.9999C40.3368 68.1298 40.3743 67.2678 40.448 66.4155L45.6327 66.8635C45.5719 67.567 45.5409 68.2795 45.5409 68.9999C45.5409 69.7204 45.5719 70.4329 45.6327 71.1363L40.448 71.5843C40.3743 70.7321 40.3368 69.8701 40.3368 68.9999Z" fill="#3CE1CD"/>
<path opacity="0.7" fill-rule="evenodd" clip-rule="evenodd" d="M57.4594 95.8891C55.8868 95.1545 54.3898 94.2863 52.9829 93.2994L55.9715 89.0391C57.1322 89.8533 58.3664 90.5689 59.6618 91.174L57.4594 95.8891Z" fill="#3CE1CD"/>
<path opacity="0.8" fill-rule="evenodd" clip-rule="evenodd" d="M70.0001 98.6631C69.1299 98.6631 68.2679 98.6256 67.4156 98.5519L67.8637 93.3672C68.5671 93.428 69.2796 93.459 70.0001 93.459C70.7205 93.459 71.433 93.428 72.1365 93.3672L72.5845 98.5519C71.7322 98.6256 70.8702 98.6631 70.0001 98.6631Z" fill="#3CE1CD"/>
<path opacity="0.9" fill-rule="evenodd" clip-rule="evenodd" d="M87.0171 93.2994C85.6102 94.2863 84.1132 95.1545 82.5406 95.8891L80.3381 91.174C81.6336 90.5689 82.8678 89.8533 84.0285 89.0391L87.0171 93.2994Z" fill="#3CE1CD"/>
<path fill-rule="evenodd" clip-rule="evenodd" d="M96.8892 81.5403C96.1546 83.1129 95.2865 84.6099 94.2996 86.0168L90.0392 83.0282C90.8534 81.8675 91.569 80.6334 92.1741 79.3379L96.8892 81.5403Z" fill="#3CE1CD"/>
<path fill-rule="evenodd" clip-rule="evenodd" d="M70 63.7959C72.8741 63.7959 75.2041 66.1259 75.2041 69C75.2041 71.8742 72.8741 74.2041 70 74.2041C67.1258 74.2041 64.7959 71.8742 64.7959 69C64.7959 66.1259 67.1258 63.7959 70 63.7959Z" stroke="white" stroke-width="3"/>
<path fill-rule="evenodd" clip-rule="evenodd" d="M62.7143 18C61.5647 18 60.6327 18.932 60.6327 20.0816V26.3265H66.8776V32.051H73.1224V26.3265H79.3674V20.0816C79.3674 18.932 78.4354 18 77.2857 18H62.7143Z" fill="#3873FF"/>
<path d="M75.2041 68.9999H97.0612C97.0612 56.5101 87.6939 42.4591 70 41.9387" stroke="white" stroke-width="3"/>
<path d="M28.8868 38.8164C22.6718 47.2677 19 57.7051 19 69.0001C19 93.0443 35.639 113.202 58.0306 118.588H19M111.113 38.8164C117.328 47.2677 121 57.7051 121 69.0001C121 93.0443 104.361 113.202 81.9694 118.588H121" stroke="white" stroke-width="3" stroke-linecap="round" stroke-linejoin="round"/>
<path fill-rule="evenodd" clip-rule="evenodd" d="M32.5306 39.8571C29.6565 39.8571 27.3265 37.5272 27.3265 34.6531C27.3265 31.7789 29.6565 29.449 32.5306 29.449C35.4047 29.449 37.7347 31.7789 37.7347 34.6531C37.7347 37.5272 35.4047 39.8571 32.5306 39.8571Z" stroke="white" stroke-width="3"/>
<path fill-rule="evenodd" clip-rule="evenodd" d="M107.469 29.449C110.344 29.449 112.673 31.779 112.673 34.6531C112.673 37.5272 110.344 39.8572 107.469 39.8572C104.595 39.8572 102.265 37.5272 102.265 34.6531C102.265 31.779 104.595 29.449 107.469 29.449Z" stroke="white" stroke-width="3"/>
</g>
<defs>
<linearGradient id="paint0_linear_65_16781" x1="70" y1="32.5713" x2="70" y2="105.428" gradientUnits="userSpaceOnUse">
<stop stop-color="#3873FF"/>
<stop offset="1" stop-color="#3873FF" stop-opacity="0"/>
</linearGradient>
</defs>
</svg>
                                            