<svg width="140" height="140" viewBox="0 0 140 140" fill="none" xmlns="http://www.w3.org/2000/svg">
<g opacity="0.7">
<path fill-rule="evenodd" clip-rule="evenodd" d="M100.989 109.891L110.017 114.561L110.016 114.514C110.915 114.977 111.259 116.074 110.791 116.962C110.322 117.851 109.212 118.196 108.312 117.733L99.2127 113.025L94.8015 110.605C92.6391 109.358 90.7397 107.718 89.2039 105.766C87.5964 103.681 86.7352 101.129 86.7544 98.5058V97.9623C82.2288 102.4 76.1429 104.938 69.7655 105.052C63.5795 104.953 57.6613 102.556 53.1832 98.3357V98.5058C53.2071 101.129 52.346 103.681 50.7337 105.766C49.1979 107.718 47.2986 109.358 45.1361 110.605L40.8876 113.025L31.6874 117.794C30.7881 118.257 29.6781 117.912 29.2092 117.024C28.7404 116.135 29.0848 115.039 29.9891 114.576L39.0888 109.868L43.2511 107.448C45.0165 106.427 46.5714 105.08 47.8201 103.478C48.9349 102.055 49.5425 100.307 49.5473 98.5059V94.4506C47.0355 91.2839 45.0261 87.7534 43.5956 83.9864C37.3856 80.5361 33.7113 75.8807 33.7113 70.6769V44.0579C33.6635 42.3374 34.3477 40.6737 35.5963 39.4732C37.5053 37.6064 40.7155 36.6185 44.9784 36.1081C50.1175 27.3739 59.5709 22 69.7997 22C80.0241 22 89.478 27.3737 94.621 36.1081H94.6162C99.2235 36.6044 102.654 37.5969 104.649 39.5584C105.874 40.74 106.548 42.366 106.51 44.058V70.7145C106.51 76.1308 102.467 80.9612 95.8554 84.4209C94.5158 87.8287 92.7073 91.0378 90.4778 93.954V98.5055C90.4874 100.32 91.1094 102.079 92.2432 103.501C93.4776 105.099 95.0038 106.446 96.7501 107.471L100.989 109.891ZM102.836 44.0573C102.86 43.3389 102.568 42.6488 102.041 42.1573C100.487 40.9803 98.6254 40.2572 96.6782 40.0776C97.7978 42.7055 98.5441 45.4752 98.8934 48.3063C101.463 46.8883 102.836 45.3902 102.836 44.0573ZM69.8053 25.6766C77.7616 25.7238 85.2253 29.4718 89.9517 35.7958C90.8751 36.9868 91.6932 38.2535 92.4012 39.5816C93.6978 42.063 94.602 44.7287 95.0709 47.4794C95.2096 48.2876 95.3101 49.091 95.3771 49.8993C94.5016 50.2301 93.5542 50.5468 92.5352 50.8446C85.2392 52.8249 77.6946 53.7702 70.1255 53.652C62.3654 53.7844 54.6345 52.7871 47.1707 50.6886C46.1325 50.3672 45.1757 50.0316 44.2905 49.6866C44.3527 48.9493 44.4628 48.2119 44.5824 47.4841L44.5872 47.4794C45.056 44.7381 45.9555 42.0819 47.2472 39.6052C47.9505 38.2676 48.7687 36.9915 49.6968 35.7958C54.4141 29.4813 61.8634 25.7333 69.8053 25.6766ZM42.9083 40.1868C41.1859 40.39 39.5497 41.0612 38.1814 42.1199C37.6503 42.6257 37.3632 43.3298 37.3871 44.0577C37.3871 45.2676 38.5641 46.6856 40.8032 48.0042C41.1525 45.3149 41.8605 42.687 42.9083 40.1868ZM41.8558 78.4184C39.0283 76.1214 37.3873 73.4841 37.3873 70.6861V50.1071C38.3585 50.8208 39.3967 51.4447 40.4827 51.9694C41.1334 52.286 41.8031 52.5885 42.5304 52.8768C43.2528 53.1652 43.6212 53.3022 44.1954 53.5055C44.5247 53.6247 44.8791 53.7378 45.2281 53.8491C45.4875 53.9318 45.7439 54.0136 45.9847 54.0962V54.101C53.8308 56.2987 61.9545 57.3669 70.1115 57.2818C78.0726 57.3575 86.0091 56.346 93.6885 54.2711C94.1111 54.1489 94.5263 54.0145 94.9358 53.882C95.0965 53.83 95.2566 53.7782 95.4157 53.7276C95.9802 53.548 96.6404 53.3164 97.1572 53.0989C97.2955 53.0407 97.4565 52.9747 97.6302 52.9035C98.1056 52.7086 98.6767 52.4744 99.1427 52.2529L99.1379 52.2482C100.434 51.6527 101.664 50.9343 102.812 50.093V70.6768C102.812 73.7159 100.879 76.5706 97.583 79C96.1286 80.054 94.5738 80.9662 92.9422 81.7224C85.7419 84.8465 77.9485 86.4015 70.0879 86.2739C62 86.2739 51.5 84 46.5109 81.3584C45.1654 80.646 42.5 79 41.8558 78.4184ZM53.1987 93.1695C57.6821 98.2976 63.471 101.408 69.8054 101.408C78.5178 101.408 85.5913 94.276 87.1479 92.3708C88.4775 90.7436 89.8279 88.6492 90.8844 86.5762C84.2155 88.8637 77.1971 89.9934 70.1355 89.913C62.8052 90.0028 55.5142 88.774 48.6296 86.2831C49.577 88.1643 50.6964 89.9556 51.9739 91.6334C52.0224 91.6971 52.0681 91.7572 52.1114 91.8142C52.57 92.4171 52.7648 92.6733 53.1987 93.1695Z" fill="#3873FF"/>
<path d="M103.459 102.346C100.597 108.885 86.7053 113.846 70 113.846C51.2223 113.846 36 107.578 36 99.846C36 95.6667 40.4475 91.9151 47.5 89.3499" stroke="white" stroke-width="3" stroke-linecap="round" stroke-linejoin="round"/>
<path fill-rule="evenodd" clip-rule="evenodd" d="M105 102.5C107.761 102.5 110 100.261 110 97.5C110 94.7386 107.761 92.5 105 92.5C102.239 92.5 100 94.7386 100 97.5C100 100.261 102.239 102.5 105 102.5Z" stroke="white" stroke-width="3"/>
<path d="M52.2529 92C52.2085 91.9418 52.1616 91.8801 52.1116 91.8144L51.9739 91.6334C50.8598 90.1701 49.8658 88.6203 49.0013 87H44.8523C45.792 88.9425 46.8715 90.6878 47.7583 92H52.2529Z" fill="#3873FF"/>
<path d="M45 72.4444V59.4074C49.2735 61.037 54.8291 63.4815 69.7863 63.4815C83.0342 63.4815 91.1538 61.037 95 59V72.4444C90.7265 76.9259 81.0684 80 69.7863 80C58.5043 80 47.9915 76.5185 45 72.4444Z" fill="url(#paint0_linear_65_16800)"/>
<rect opacity="0.1" x="18" y="48" width="10.381" height="10.381" fill="#3CE1CD"/>
<rect opacity="0.4" x="18" y="61.4951" width="10.381" height="10.381" fill="#3CE1CD"/>
<rect opacity="0.7" x="18" y="74.9905" width="10.381" height="10.381" fill="#3CE1CD"/>
<rect x="18" y="88.4858" width="10.381" height="10.381" fill="#3CE1CD"/>
<rect opacity="0.1" x="112" y="17" width="10.381" height="10.381" fill="#3CE1CD"/>
<rect opacity="0.4" x="112" y="30.4951" width="10.381" height="10.381" fill="#3CE1CD"/>
<rect opacity="0.7" x="112" y="43.9905" width="10.381" height="10.381" fill="#3CE1CD"/>
<rect x="112" y="57.4858" width="10.381" height="10.381" fill="#3CE1CD"/>
</g>
<defs>
<linearGradient id="paint0_linear_65_16800" x1="70" y1="59" x2="70" y2="80" gradientUnits="userSpaceOnUse">
<stop stop-color="#3873FF"/>
<stop offset="1" stop-color="#3873FF" stop-opacity="0"/>
</linearGradient>
</defs>
</svg>
