<svg width="1504" height="750" viewBox="400 0 504 950" fill="none" xmlns="http://www.w3.org/2000/svg">
<g opacity="0.5" clip-path="url(#clip0_65_16483)">
<g style="mix-blend-mode:color-dodge">
<path opacity="0.91" d="M36.9699 71.02C38.6311 71.0227 40.2235 71.6844 41.3972 72.86C42.5708 74.0356 43.2299 75.6288 43.2299 77.29C43.2299 78.9503 42.5704 80.5425 41.3964 81.7165C40.2224 82.8905 38.6302 83.55 36.9699 83.55C36.1478 83.55 35.3339 83.3881 34.5744 83.0735C33.8149 82.7589 33.1247 82.2978 32.5434 81.7165C31.9621 81.1352 31.5011 80.4451 31.1865 79.6856C30.8719 78.9261 30.7099 78.1121 30.7099 77.29C30.7099 75.6288 31.3692 74.0356 32.5429 72.86C33.7166 71.6844 35.3087 71.0227 36.9699 71.02Z" fill="#CEB7EC"/>
</g>
<g style="mix-blend-mode:color-dodge">
<path opacity="0.99" d="M42.8 391C44.5487 391.003 46.2248 391.699 47.4604 392.937C48.696 394.174 49.3901 395.851 49.3901 397.6C49.3914 398.466 49.2219 399.324 48.8913 400.125C48.5607 400.926 48.0754 401.653 47.4633 402.266C46.8513 402.879 46.1244 403.366 45.3242 403.697C44.524 404.029 43.6662 404.2 42.8 404.2C41.9337 404.2 41.076 404.029 40.2758 403.697C39.4756 403.366 38.7487 402.879 38.1367 402.266C37.5246 401.653 37.0393 400.926 36.7087 400.125C36.3781 399.324 36.2086 398.466 36.2099 397.6C36.2099 395.851 36.904 394.174 38.1396 392.937C39.3752 391.699 41.0513 391.003 42.8 391Z" fill="#DA47FD"/>
</g>
<g style="mix-blend-mode:color-dodge">
<path opacity="0.66" d="M365.06 297.63C365.941 297.631 366.814 297.806 367.627 298.144C368.441 298.483 369.18 298.978 369.802 299.602C370.424 300.226 370.917 300.967 371.253 301.781C371.589 302.596 371.761 303.469 371.76 304.35C371.765 305.233 371.596 306.109 371.262 306.926C370.927 307.744 370.435 308.487 369.812 309.113C369.189 309.74 368.449 310.237 367.633 310.576C366.818 310.915 365.943 311.09 365.06 311.09C364.179 311.091 363.306 310.919 362.491 310.582C361.676 310.245 360.936 309.751 360.313 309.128C359.689 308.504 359.195 307.764 358.858 306.949C358.522 306.135 358.349 305.261 358.35 304.38C358.345 303.495 358.515 302.618 358.849 301.8C359.184 300.981 359.678 300.237 360.301 299.609C360.925 298.982 361.666 298.484 362.483 298.144C363.3 297.805 364.176 297.63 365.06 297.63Z" fill="#FF69B2"/>
</g>
<g style="mix-blend-mode:color-dodge">
<path d="M386.89 335.3C387.791 335.3 388.683 335.477 389.515 335.822C390.348 336.167 391.104 336.672 391.741 337.309C392.378 337.946 392.883 338.702 393.228 339.535C393.573 340.367 393.75 341.259 393.75 342.16C393.75 343.98 393.028 345.726 391.741 347.014C390.455 348.302 388.71 349.027 386.89 349.03C385.989 349.029 385.097 348.85 384.266 348.504C383.434 348.158 382.678 347.651 382.042 347.013C381.406 346.376 380.902 345.619 380.558 344.786C380.215 343.953 380.039 343.061 380.04 342.16C380.04 340.342 380.761 338.599 382.046 337.313C383.33 336.026 385.072 335.302 386.89 335.3Z" fill="#FDF1F9"/>
</g>
<g style="mix-blend-mode:color-dodge">
<path opacity="0.73" d="M144.41 86.3701C146.256 86.3859 148.021 87.1304 149.321 88.4415C150.621 89.7525 151.35 91.524 151.35 93.3701C151.35 95.2163 150.621 96.9877 149.321 98.2988C148.021 99.6098 146.256 100.354 144.41 100.37C142.562 100.357 140.795 99.6136 139.493 98.3023C138.191 96.9909 137.46 95.218 137.46 93.3701C137.46 91.5222 138.191 89.7493 139.493 88.438C140.795 87.1266 142.562 86.3833 144.41 86.3701Z" fill="#2020E3"/>
</g>
<g style="mix-blend-mode:color-dodge">
<path opacity="0.83" d="M52.53 0C53.4645 -9.24331e-07 54.3898 0.184235 55.2531 0.542171C56.1164 0.900108 56.9006 1.42472 57.561 2.08601C58.2213 2.74729 58.745 3.53227 59.1018 4.39605C59.4585 5.25983 59.6414 6.18546 59.6401 7.12C59.6401 9.00661 58.8911 10.8161 57.5581 12.1511C56.225 13.486 54.4166 14.2374 52.53 14.24C51.5954 14.24 50.6701 14.0558 49.8068 13.6978C48.9436 13.3399 48.1593 12.8153 47.499 12.154C46.8386 11.4927 46.3152 10.7077 45.9584 9.84395C45.6017 8.98017 45.4188 8.05454 45.4201 7.12C45.4188 6.18546 45.6017 5.25983 45.9584 4.39605C46.3152 3.53227 46.8386 2.74729 47.499 2.08601C48.1593 1.42472 48.9436 0.900108 49.8068 0.542171C50.6701 0.184235 51.5954 -9.24331e-07 52.53 0Z" fill="#9E00F0"/>
</g>
<g style="mix-blend-mode:color-dodge">
<path d="M56.51 295.73C58.4824 295.735 60.3723 296.522 61.7651 297.919C63.1579 299.316 63.9399 301.208 63.9399 303.18C63.9412 304.157 63.7501 305.125 63.3774 306.028C63.0047 306.931 62.458 307.752 61.768 308.444C61.0781 309.136 60.2586 309.685 59.3564 310.06C58.4542 310.435 57.487 310.629 56.51 310.63C55.5321 310.63 54.5639 310.437 53.6606 310.063C52.7573 309.688 51.9365 309.139 51.2456 308.447C50.5546 307.755 50.0068 306.934 49.6335 306.03C49.2602 305.126 49.0687 304.158 49.07 303.18C49.07 301.206 49.8535 299.312 51.2485 297.916C52.6435 296.519 54.5358 295.733 56.51 295.73Z" fill="#0C4BED"/>
</g>
<g style="mix-blend-mode:color-dodge">
<path d="M442.23 100.51C444.309 100.51 446.303 101.336 447.774 102.806C449.244 104.277 450.07 106.271 450.07 108.35C450.071 109.38 449.87 110.401 449.476 111.353C449.083 112.306 448.506 113.171 447.777 113.9C447.049 114.629 446.185 115.208 445.233 115.602C444.281 115.997 443.26 116.2 442.23 116.2C441.2 116.2 440.18 115.997 439.229 115.602C438.278 115.207 437.414 114.629 436.686 113.9C435.959 113.17 435.383 112.305 434.99 111.353C434.598 110.4 434.398 109.38 434.4 108.35C434.399 107.321 434.6 106.302 434.993 105.351C435.386 104.399 435.963 103.535 436.69 102.807C437.417 102.079 438.281 101.501 439.231 101.107C440.182 100.713 441.201 100.51 442.23 100.51Z" fill="#EC6196"/>
</g>
<g style="mix-blend-mode:color-dodge">
<g opacity="0.78">
<path d="M-57.4299 135.66C-57.6034 135.66 -57.774 135.615 -57.9248 135.529C-58.0755 135.443 -58.2015 135.319 -58.29 135.17C-58.3605 135.057 -58.4076 134.931 -58.4287 134.799C-58.4497 134.667 -58.4442 134.533 -58.4126 134.403C-58.3809 134.274 -58.3238 134.152 -58.2443 134.045C-58.1649 133.938 -58.0647 133.848 -57.9499 133.78L36.45 76.4199C36.5631 76.3494 36.6894 76.3022 36.8211 76.2811C36.9527 76.2601 37.0871 76.2655 37.2166 76.2972C37.3461 76.3289 37.4682 76.3861 37.5752 76.4656C37.6823 76.5451 37.7723 76.6451 37.8401 76.7599C37.9107 76.8731 37.9577 76.9992 37.9788 77.1308C37.9999 77.2625 37.9946 77.397 37.9629 77.5265C37.9313 77.6561 37.8739 77.7779 37.7945 77.885C37.715 77.992 37.6148 78.0821 37.5 78.1499L-56.8999 135.51C-57.059 135.609 -57.2427 135.661 -57.4299 135.66Z" fill="#BE79EC"/>
</g>
</g>
<g style="mix-blend-mode:color-dodge">
<g opacity="0.22">
<path d="M42.8001 397.85C42.764 397.859 42.7261 397.859 42.69 397.85L-109.71 322.04C-109.739 322.026 -109.766 322.006 -109.787 321.982C-109.809 321.958 -109.825 321.929 -109.836 321.899C-109.846 321.868 -109.85 321.835 -109.847 321.803C-109.844 321.77 -109.835 321.739 -109.82 321.71C-109.807 321.681 -109.788 321.655 -109.765 321.633C-109.742 321.612 -109.714 321.595 -109.684 321.585C-109.654 321.574 -109.622 321.57 -109.59 321.573C-109.559 321.576 -109.528 321.585 -109.5 321.6L42.9102 397.41C42.9678 397.44 43.0115 397.491 43.032 397.553C43.0526 397.614 43.0482 397.681 43.0201 397.74C42.9967 397.776 42.9641 397.806 42.9253 397.825C42.8866 397.845 42.8433 397.853 42.8001 397.85Z" fill="#D67EF8"/>
</g>
</g>
<g style="mix-blend-mode:color-dodge">
<g opacity="0.83">
<path d="M94.8902 456.62C94.749 456.621 94.6091 456.592 94.4798 456.535C94.3505 456.479 94.2348 456.395 94.1402 456.29L42.0501 398.29C41.9599 398.192 41.8902 398.076 41.8453 397.951C41.8003 397.825 41.7812 397.691 41.7886 397.558C41.7961 397.425 41.8301 397.295 41.8887 397.175C41.9474 397.055 42.0295 396.948 42.1302 396.86C42.2283 396.771 42.3431 396.703 42.4678 396.659C42.5926 396.615 42.7247 396.596 42.8567 396.604C42.9888 396.611 43.1181 396.645 43.2371 396.702C43.3561 396.76 43.4625 396.841 43.5501 396.94L95.6402 454.94C95.731 455.038 95.8012 455.153 95.847 455.278C95.8927 455.403 95.9131 455.537 95.9065 455.67C95.9 455.803 95.8669 455.934 95.8091 456.054C95.7514 456.174 95.6701 456.282 95.5701 456.37C95.3827 456.535 95.1401 456.625 94.8902 456.62Z" fill="#BC49FE"/>
</g>
</g>
<g style="mix-blend-mode:color-dodge">
<g opacity="0.25">
<path d="M-175.94 458.63C-175.999 458.63 -176.057 458.61 -176.104 458.574C-176.151 458.538 -176.185 458.487 -176.2 458.43C-176.211 458.395 -176.214 458.358 -176.21 458.322C-176.206 458.286 -176.195 458.251 -176.177 458.219C-176.16 458.188 -176.136 458.16 -176.107 458.138C-176.078 458.115 -176.045 458.099 -176.01 458.09L42.6899 397.34C42.7247 397.329 42.7614 397.326 42.7976 397.33C42.8338 397.334 42.8689 397.345 42.9006 397.362C42.9324 397.38 42.9602 397.404 42.9824 397.433C43.0047 397.462 43.0208 397.495 43.03 397.53C43.0487 397.6 43.0394 397.675 43.0039 397.738C42.9684 397.802 42.9097 397.849 42.8401 397.87L-175.87 458.62L-175.94 458.63Z" fill="#C287F8"/>
</g>
</g>
<g style="mix-blend-mode:color-dodge">
<g opacity="0.83">
<path d="M386.89 343.18C386.713 343.18 386.539 343.132 386.386 343.043C386.233 342.953 386.107 342.825 386.02 342.67L364.16 304.85C364.092 304.736 364.048 304.609 364.03 304.477C364.012 304.345 364.021 304.211 364.055 304.082C364.09 303.954 364.149 303.834 364.231 303.728C364.312 303.623 364.414 303.535 364.53 303.47C364.645 303.402 364.771 303.358 364.903 303.34C365.035 303.322 365.169 303.331 365.298 303.365C365.426 303.4 365.547 303.459 365.652 303.541C365.757 303.623 365.845 303.724 365.91 303.84L387.77 341.66C387.838 341.775 387.882 341.902 387.9 342.033C387.918 342.165 387.909 342.299 387.875 342.428C387.84 342.556 387.781 342.677 387.699 342.782C387.618 342.887 387.516 342.975 387.4 343.04C387.245 343.129 387.069 343.177 386.89 343.18Z" fill="#FEADD6"/>
</g>
</g>
<g style="mix-blend-mode:color-dodge">
<g opacity="0.19">
<path d="M503.42 121.75L364.84 304.2C364.818 304.222 364.8 304.249 364.788 304.278C364.776 304.307 364.77 304.338 364.77 304.37C364.77 304.402 364.776 304.433 364.788 304.462C364.8 304.491 364.818 304.518 364.84 304.54C364.882 304.576 364.935 304.594 364.99 304.59C365.027 304.59 365.064 304.581 365.097 304.564C365.131 304.546 365.159 304.521 365.18 304.49L503.37 122.57L503.42 121.75Z" fill="#EF5CD5"/>
</g>
</g>
<g style="mix-blend-mode:color-dodge">
<g opacity="0.29">
<path d="M503.42 125.69L386.62 342.02C386.599 342.055 386.586 342.094 386.58 342.135C386.575 342.175 386.578 342.217 386.589 342.256C386.601 342.295 386.62 342.332 386.646 342.363C386.672 342.395 386.704 342.421 386.74 342.44C386.79 342.449 386.841 342.449 386.89 342.44C386.947 342.441 387.003 342.426 387.051 342.395C387.099 342.365 387.137 342.322 387.16 342.27L503.42 126.95V125.69Z" fill="#EFA0F9"/>
</g>
</g>
<g style="mix-blend-mode:color-dodge">
<g opacity="0.15">
<path d="M308.47 594.03C308.432 594.014 308.401 593.985 308.383 593.949C308.364 593.912 308.36 593.87 308.37 593.83L386.79 342.13C386.796 342.109 386.806 342.09 386.819 342.074C386.832 342.057 386.848 342.043 386.867 342.033C386.886 342.023 386.906 342.016 386.927 342.014C386.948 342.012 386.97 342.014 386.99 342.02C387.028 342.036 387.059 342.064 387.078 342.101C387.096 342.138 387.1 342.18 387.09 342.22L308.67 593.93C308.657 593.969 308.628 594.002 308.59 594.021C308.553 594.039 308.51 594.043 308.47 594.03Z" fill="#9996FC"/>
</g>
</g>
<g style="mix-blend-mode:color-dodge">
<g opacity="0.63">
<path d="M144.41 94.15C144.202 94.1534 144 94.0743 143.85 93.93L51.9699 7.72001C51.8154 7.56451 51.7287 7.3542 51.7287 7.135C51.7287 6.9158 51.8154 6.7055 51.9699 6.55C52.125 6.39852 52.3332 6.31372 52.55 6.31372C52.7668 6.31372 52.975 6.39852 53.1301 6.55L145.01 92.76C145.086 92.8362 145.147 92.9266 145.188 93.0261C145.229 93.1256 145.25 93.2323 145.25 93.34C145.25 93.4477 145.229 93.5544 145.188 93.6539C145.147 93.7534 145.086 93.8439 145.01 93.92C144.848 94.0732 144.633 94.1559 144.41 94.15Z" fill="#5F10E9"/>
</g>
</g>
<g style="mix-blend-mode:color-dodge">
<g opacity="0.24">
<path d="M-144.07 322.2C-144.104 322.201 -144.138 322.196 -144.17 322.184C-144.202 322.172 -144.232 322.154 -144.257 322.131C-144.282 322.108 -144.302 322.08 -144.316 322.049C-144.331 322.018 -144.339 321.984 -144.34 321.95C-144.343 321.878 -144.319 321.807 -144.273 321.752C-144.227 321.696 -144.161 321.66 -144.09 321.65L56.4799 302.91C56.5162 302.906 56.5531 302.909 56.5881 302.92C56.6231 302.93 56.6555 302.947 56.6836 302.971C56.7116 302.994 56.7346 303.023 56.7512 303.055C56.7678 303.088 56.7775 303.124 56.78 303.16C56.7832 303.232 56.7593 303.303 56.7131 303.358C56.6669 303.414 56.6015 303.45 56.53 303.46L-144.04 322.2H-144.07Z" fill="#207EEC"/>
</g>
</g>
<g style="mix-blend-mode:color-dodge">
<g opacity="0.34">
<path d="M-73.1599 533.28C-73.2295 533.279 -73.2978 533.262 -73.3598 533.23C-73.4073 533.204 -73.4491 533.169 -73.4829 533.126C-73.5166 533.084 -73.5417 533.035 -73.5566 532.983C-73.5715 532.931 -73.5758 532.877 -73.5695 532.823C-73.5632 532.769 -73.5465 532.717 -73.52 532.67L56.1502 302.98C56.2045 302.889 56.2922 302.822 56.3948 302.794C56.4975 302.766 56.6068 302.779 56.7 302.83C56.7471 302.855 56.7889 302.889 56.8226 302.931C56.8562 302.972 56.8811 303.02 56.896 303.071C56.9109 303.122 56.9154 303.176 56.9092 303.229C56.903 303.282 56.8864 303.334 56.8602 303.38L-72.81 533.09C-72.8481 533.148 -72.8998 533.196 -72.9609 533.229C-73.022 533.262 -73.0904 533.28 -73.1599 533.28Z" fill="#0655DF"/>
</g>
</g>
<g style="mix-blend-mode:color-dodge">
<g opacity="0.07">
<path d="M337.79 426.09C337.768 426.083 337.749 426.068 337.738 426.047C337.727 426.027 337.724 426.003 337.73 425.98L442.17 108.37C442.186 108.358 442.205 108.351 442.225 108.351C442.245 108.351 442.264 108.358 442.28 108.37C442.301 108.379 442.317 108.395 442.326 108.415C442.335 108.436 442.337 108.459 442.33 108.48L337.87 425.99C337.873 426.002 337.873 426.015 337.871 426.027C337.868 426.039 337.863 426.05 337.855 426.06C337.847 426.07 337.837 426.078 337.826 426.083C337.815 426.088 337.802 426.09 337.79 426.09Z" fill="#9730C1"/>
</g>
</g>
<g style="mix-blend-mode:color-dodge">
<path opacity="0.11" d="M-57.43 134.65L-137.7 299.21L36.97 77.29L-57.43 134.65Z" fill="#BC93EC"/>
</g>
<g style="mix-blend-mode:color-dodge">
<path opacity="0.06" d="M-109.6 321.79L-137.7 299.21L36.97 77.29L-109.6 321.79Z" fill="#C8BBEE"/>
</g>
<g style="mix-blend-mode:color-dodge">
<path opacity="0.03" d="M19.99 881.52L10.93 601.09L-109.6 321.79L19.99 881.52Z" fill="#D19CDE"/>
</g>
<g style="mix-blend-mode:color-dodge">
<path opacity="0.13" d="M-57.43 134.65L-109.6 321.79L36.97 77.29L-57.43 134.65Z" fill="#C58DEE"/>
</g>
<g style="mix-blend-mode:color-dodge">
<path opacity="0.05" d="M-328.8 460.35L10.9299 601.09L-109.6 321.79L-328.8 460.35Z" fill="#9789DD"/>
</g>
<g style="mix-blend-mode:color-dodge">
<path opacity="0.09" d="M42.8 397.61L-57.43 134.65L-109.6 321.79L42.8 397.61Z" fill="#C968F4"/>
</g>
<g style="mix-blend-mode:color-dodge">
<path opacity="0.01" d="M-109.6 321.79L36.9699 77.29L-175.9 458.36L-109.6 321.79Z" fill="#C3BCF1"/>
</g>
<g style="mix-blend-mode:color-dodge">
<path opacity="0.04" d="M42.7999 397.61L-328.8 460.35L10.9299 601.09L42.7999 397.61Z" fill="#9A65E0"/>
</g>
<g style="mix-blend-mode:color-dodge">
<path opacity="0.11" d="M42.8 397.61L94.89 455.61L10.93 601.09L42.8 397.61Z" fill="#CC4BE2"/>
</g>
<g style="mix-blend-mode:color-dodge">
<path opacity="0.11" d="M42.7999 397.61L-328.8 460.35L-175.9 458.36L42.7999 397.61Z" fill="#848CF8"/>
</g>
<g style="mix-blend-mode:color-dodge">
<path opacity="0.04" d="M42.8 397.61L144.79 565.43L-109.6 321.79L42.8 397.61Z" fill="#9C63FA"/>
</g>
<g style="mix-blend-mode:color-dodge">
<path opacity="0.13" d="M42.8 397.61L94.89 455.61L-175.9 458.36L42.8 397.61Z" fill="#B573FA"/>
</g>
<g style="mix-blend-mode:color-dodge">
<path opacity="0.12" d="M42.8 397.61L365.04 304.35L94.89 455.61L42.8 397.61Z" fill="#D253E4"/>
</g>
<g style="mix-blend-mode:color-dodge">
<path opacity="0.04" d="M-13.27 647.53L42.8 397.61L365.04 304.35L-13.27 647.53Z" fill="#CE55E4"/>
</g>
<g style="mix-blend-mode:color-dodge">
<path opacity="0.13" d="M42.8 397.61L94.89 455.61L144.79 565.43L42.8 397.61Z" fill="#8A40FE"/>
</g>
<g style="mix-blend-mode:color-dodge">
<path opacity="0.09" d="M42.8 397.61L94.89 455.61L144.41 93.3301L42.8 397.61Z" fill="#883BF5"/>
</g>
<g style="mix-blend-mode:color-dodge">
<path opacity="0.05" d="M42.8 397.61L365.04 304.35L308.47 593.87L42.8 397.61Z" fill="#AF4EE4"/>
</g>
<g style="mix-blend-mode:color-dodge">
<path opacity="0.12" d="M365.04 304.35L94.89 455.61L386.89 342.17L365.04 304.35Z" fill="#DE8CE3"/>
</g>
<g style="mix-blend-mode:color-dodge">
<path opacity="0.01" d="M-13.27 647.53L42.8 397.61L254.19 949.93L-13.27 647.53Z" fill="#B765FE"/>
</g>
<g style="mix-blend-mode:color-dodge">
<path opacity="0.07" d="M42.8 397.61L144.79 565.43L386.89 342.17L42.8 397.61Z" fill="#AA77FC"/>
</g>
<g style="mix-blend-mode:color-dodge">
<path opacity="0.05" d="M42.8 397.61L386.89 342.17L144.41 93.3301L42.8 397.61Z" fill="#A873F3"/>
</g>
<g style="mix-blend-mode:color-dodge">
<path opacity="0.06" d="M94.89 455.61L386.89 342.17L144.41 93.3301L94.89 455.61Z" fill="#9474F4"/>
</g>
<g style="mix-blend-mode:color-dodge">
<path opacity="0.13" d="M503.42 122.16L365.04 304.35L386.89 342.17L503.42 126.34V122.16Z" fill="#F48EE1"/>
</g>
<g style="mix-blend-mode:color-dodge">
<path opacity="0.11" d="M365.04 304.35L386.89 342.17L144.41 93.3301L365.04 304.35Z" fill="#B47EDA"/>
</g>
<g style="mix-blend-mode:color-dodge">
<path opacity="0.03" d="M365.04 304.35L308.47 593.87L144.41 93.3301L365.04 304.35Z" fill="#7142DC"/>
</g>
<g style="mix-blend-mode:color-dodge">
<path opacity="0.12" d="M144.79 565.43L308.47 593.87L386.89 342.17L144.79 565.43Z" fill="#7374FD"/>
</g>
<g style="mix-blend-mode:color-dodge">
<path opacity="0.12" d="M144.79 565.43L308.47 593.87L386.89 342.17L144.79 565.43Z" fill="#7374FD"/>
</g>
<g style="mix-blend-mode:color-dodge">
<path opacity="0.02" d="M144.79 565.43L144.41 93.3301L-144.07 321.93L144.79 565.43Z" fill="#2955EF"/>
</g>
<g style="mix-blend-mode:color-dodge">
<path opacity="0.01" d="M-225.11 464.83L52.53 7.12012L-144.07 321.93L-225.11 464.83Z" fill="#803ADE"/>
</g>
<g style="mix-blend-mode:color-dodge">
<path opacity="0.12" d="M-73.16 532.88L-144.07 321.93L56.51 303.19L-73.16 532.88Z" fill="#1573E4"/>
</g>
<g style="mix-blend-mode:color-dodge">
<path opacity="0.12" d="M-73.16 532.88L-144.07 321.93L56.51 303.19L-73.16 532.88Z" fill="#1573E4"/>
</g>
<g style="mix-blend-mode:color-dodge">
<path opacity="0.12" d="M-225.11 464.83L-73.16 532.88L56.51 303.19L-225.11 464.83Z" fill="#3E38D5"/>
</g>
<g style="mix-blend-mode:color-dodge">
<path opacity="0.12" d="M-225.11 464.83L-73.16 532.88L56.51 303.19L-225.11 464.83Z" fill="#3E38D5"/>
</g>
<g style="mix-blend-mode:color-dodge">
<path opacity="0.04" d="M-225.11 464.83L337.79 425.96L56.51 303.19L-225.11 464.83Z" fill="#5519DE"/>
</g>
</g>
<defs>
<clipPath id="clip0_65_16483">
<rect width="1175.42" height="949.93" fill="white" transform="translate(-672)"/>
</clipPath>
</defs>
</svg>
