<svg width="172" height="46" viewBox="0 0 172 46" fill="none" xmlns="http://www.w3.org/2000/svg">
<g opacity="0.7" clip-path="url(#clip0_81_7554)">
<path d="M28.8435 28.2946C26.3733 28.287 24.005 27.3097 22.2496 25.5733C20.4943 23.8369 19.4925 21.4807 19.4605 19.013C19.4505 17.7798 19.6842 16.5568 20.1481 15.4141C20.612 14.2713 21.297 13.2312 22.164 12.3533C23.0309 11.4755 24.0627 10.7772 25.2002 10.2984C26.3377 9.81962 27.5586 9.56977 28.793 9.56317C30.027 9.55542 31.2505 9.79128 32.393 10.2572C33.5356 10.7231 34.5748 11.41 35.451 12.2783C36.3271 13.1465 37.0229 14.1792 37.4985 15.3169C37.9741 16.4546 38.22 17.6749 38.2222 18.9078C38.2234 21.3948 37.2361 23.7804 35.4775 25.5405C33.7189 27.3007 31.3328 28.2912 28.8435 28.2946ZM32.632 21.1452C32.6648 20.4012 32.5911 19.6563 32.4131 18.9331C31.5923 16.1448 29.5844 14.5509 27.0544 13.4112C26.8014 13.2656 26.5114 13.1968 26.2198 13.2133C25.9282 13.2297 25.6478 13.3306 25.4127 13.5037C22.5587 15.4215 21.8178 18.3401 22.8197 21.1073C24.0825 24.5979 27.2354 25.8175 30.5189 25.132C31.5165 24.9217 32.2027 24.4129 32.3668 23.29C32.5252 22.5852 32.6168 21.8671 32.6404 21.1452H32.632Z" fill="white"/>
<path d="M0 29.5563C0.0311139 26.1463 1.12153 22.8302 3.12057 20.0661C5.11962 17.302 7.9286 15.2265 11.1594 14.1262C13.2348 13.4709 15.4172 13.221 17.5873 13.3902C18.5849 13.4491 18.7028 13.672 18.3113 14.5552C17.8956 15.3631 17.6357 16.2419 17.5452 17.1458C17.5115 18.0542 17.1663 18.3107 16.2823 18.3401C11.6519 18.5 8.22957 20.6868 6.12482 24.804C5.25346 26.5073 5.04718 28.3913 5.08928 30.3133C5.15663 33.602 5.14822 36.8949 5.16085 40.1836C5.16085 40.4696 5.3166 40.8649 4.88723 40.9911C4.54626 41.092 4.42418 40.7724 4.23897 40.5705C1.38493 37.5047 0.126285 33.8207 0 29.5563Z" fill="white"/>
<path d="M16.3287 45.996C14.748 46.0242 13.1727 45.8042 11.6603 45.3441C10.8184 45.096 10.2712 44.7091 10.3975 43.6619C10.4586 42.6495 10.467 41.6346 10.4227 40.6213C10.4227 39.5111 10.5659 39.4354 11.6856 39.9442C13.0122 40.5598 14.4536 40.8893 15.9161 40.9115C20.9675 40.9956 24.9413 38.4807 26.9113 33.8672C27.2949 33.0016 27.5201 32.0744 27.5764 31.1295C27.6017 30.5365 27.8879 30.2884 28.5109 30.2884C29.6896 30.2421 30.8851 30.2883 32.0301 29.8426C32.6573 29.5902 32.691 30.1033 32.691 30.5575C32.6485 32.7627 32.0784 34.9257 31.0282 36.8658C28.5657 41.7316 24.5582 44.6292 19.2416 45.7521C18.2777 45.9026 17.3042 45.9841 16.3287 45.996Z" fill="white"/>
<path d="M95.9302 28.6651C95.9302 27.0922 95.9555 25.5193 95.9302 23.9465C95.9302 23.2147 96.2165 22.7521 96.9152 22.7269C98.7885 22.6596 100.674 22.3694 102.522 23.0633C104.69 23.8792 105.41 26.5749 103.718 28.1604C102.96 28.8669 103.053 29.258 103.575 29.9898C104.417 31.18 104.391 32.6982 104.838 34.0397C104.854 34.1244 104.851 34.2115 104.83 34.2951C104.809 34.3787 104.77 34.4566 104.715 34.5234C104.231 35.0701 102.131 34.578 101.908 33.8589C101.692 33.1591 101.512 32.4489 101.369 31.7309C101.276 31.2853 101.08 30.8677 100.796 30.5113C100.616 30.2916 100.372 30.1331 100.097 30.0578C99.8227 29.9825 99.5317 29.994 99.2641 30.0907C98.7379 30.2253 98.8137 30.73 98.8095 31.1421C98.8095 31.9454 98.7674 32.7528 98.8095 33.5519C98.8769 34.6664 98.1823 34.6916 97.3783 34.6706C96.5743 34.6495 95.8755 34.7252 95.905 33.5813C95.9681 31.9538 95.9302 30.3094 95.9302 28.6651ZM98.8137 25.9567C98.8137 27.8282 98.8137 27.8702 99.7777 27.8702C101.041 27.8702 101.815 27.273 101.845 26.3016C101.87 25.3932 101.049 24.7876 99.9124 24.6993C98.6706 24.6067 98.7885 25.3974 98.8137 25.9567Z" fill="white"/>
<path d="M122.176 22.5669C125.62 22.5669 127.779 24.9178 127.767 28.6186C127.767 32.4541 125.531 34.7923 121.911 34.7839C118.544 34.7839 116.287 32.3111 116.338 28.6775C116.388 25.0439 118.682 22.4407 122.176 22.5669ZM124.837 28.4756C124.804 27.9922 124.747 27.5107 124.664 27.0332C124.399 25.8388 123.452 24.8715 122.475 24.7369C121.951 24.646 121.411 24.7291 120.938 24.9736C120.465 25.2182 120.085 25.6107 119.857 26.0911C119.418 26.8576 119.182 27.7232 119.17 28.6063C119.159 29.4893 119.374 30.3606 119.794 31.1377C120.842 33.1396 123.161 33.0807 124.311 31.1377C124.79 30.3345 124.761 29.4639 124.854 28.4756H124.837Z" fill="white"/>
<path d="M22.4114 29.6911C22.3709 31.2767 21.7223 32.7862 20.5997 33.9077C19.4771 35.0292 17.9662 35.6772 16.3792 35.7176C14.7917 35.6854 13.2782 35.041 12.1554 33.9193C11.0327 32.7976 10.3877 31.2855 10.3554 29.6995C10.3497 28.9042 10.5027 28.1157 10.8054 27.3801C11.1081 26.6445 11.5544 25.9765 12.1183 25.4151C12.6822 24.8537 13.3524 24.4102 14.0897 24.1103C14.8271 23.8105 15.6168 23.6604 16.4128 23.6688C18.003 23.6875 19.5224 24.3289 20.6441 25.4551C21.7659 26.5813 22.4005 28.1023 22.4114 29.6911ZM18.8291 30.9528C18.8045 29.8844 18.4522 28.8493 17.8198 27.9874C17.1875 27.1255 16.3055 26.4783 15.2931 26.1332C15.0307 26.0452 14.7495 26.0287 14.4787 26.0857C14.2078 26.1426 13.9571 26.2708 13.7524 26.4571C11.715 27.9668 11.5635 32.0967 14.6785 33.3878C16.8169 34.2877 18.8964 34.0817 18.8291 30.9696V30.9528Z" fill="white"/>
<path d="M16.3243 0C17.9131 0.0227104 19.4306 0.6622 20.5557 1.7831C21.6808 2.90399 22.3252 4.41831 22.3523 6.00549C22.3523 9.11337 19.5614 11.9311 16.459 11.9605C14.878 11.9434 13.3657 11.3123 12.2422 10.2008C11.1187 9.08937 10.4722 7.58477 10.4395 6.00549C10.3553 2.71256 13.3651 0 16.3243 0ZM12.2832 5.82885C11.9675 8.71805 14.8847 10.7157 17.4609 10.0344C17.7206 10.0015 17.9659 9.8966 18.169 9.73159C18.3721 9.56658 18.5249 9.34805 18.6101 9.10075C19.0607 7.81611 18.9953 6.40699 18.4278 5.16948C17.8603 3.93196 16.8347 2.96237 15.5666 2.46444C15.2544 2.30171 14.8976 2.24527 14.5504 2.30373C14.2031 2.36218 13.8845 2.53231 13.6429 2.78826C12.7252 3.63778 12.1569 4.61766 12.2832 5.82885Z" fill="white"/>
<path d="M55.6326 28.6018C55.6326 26.9575 55.6326 25.3131 55.6326 23.673C55.6326 22.9622 55.8768 22.6552 56.6135 22.6679C58.4684 22.6959 60.3248 22.6959 62.1826 22.6679C62.974 22.6679 63.1466 23.0884 63.0919 23.7276C63.0456 24.3164 63.2687 25.065 62.25 25.0734C61.2313 25.0818 60.2883 25.1659 59.3033 25.1323C58.5077 25.1071 58.3857 25.5024 58.3857 26.1626C58.3857 26.8229 58.4572 27.336 59.3286 27.2897C60.1326 27.2435 60.945 27.336 61.7448 27.2687C62.7214 27.1846 62.8982 27.643 62.9109 28.5093C62.9235 29.3757 62.612 29.771 61.6943 29.7121C60.8945 29.6532 60.0821 29.7121 59.2823 29.6911C58.5793 29.6574 58.3941 29.956 58.3857 30.6163C58.3857 32.2985 58.3436 32.2985 60.0695 32.2985C60.9114 32.2985 61.7533 32.2985 62.5952 32.2985C63.5718 32.2985 63.3529 33.0008 63.3655 33.5602C63.3781 34.1195 63.4665 34.7041 62.5741 34.6914C60.5409 34.6662 58.5119 34.6914 56.4788 34.6914C55.7084 34.6914 55.6369 34.1952 55.6369 33.6443C55.6284 31.9621 55.6326 30.2798 55.6326 28.6018Z" fill="white"/>
<path d="M86.2821 28.5932C86.2821 26.9488 86.2821 25.3003 86.2821 23.6601C86.2821 22.9452 86.5178 22.6508 87.2503 22.6634C89.1067 22.697 90.9673 22.7097 92.8194 22.6634C93.7876 22.6382 93.7834 23.2143 93.7834 23.8872C93.7834 24.5601 93.7834 25.1489 92.8152 25.09C91.9439 25.0269 91.0599 25.1152 90.1885 25.09C89.3171 25.0648 89.1951 25.4685 89.2077 26.1792C89.2203 26.8899 89.2666 27.361 90.1464 27.3105C91.0262 27.26 91.8302 27.3105 92.6721 27.3105C93.6613 27.3105 93.4172 28.0381 93.434 28.5722C93.4509 29.1063 93.5645 29.7539 92.6595 29.7245C91.7544 29.695 90.9083 29.7245 90.0328 29.7245C89.4518 29.7245 89.2456 29.96 89.2119 30.5361C89.1151 32.2688 89.1361 32.3151 90.841 32.3151C91.6113 32.3151 92.3817 32.3151 93.152 32.3151C94.0697 32.2856 94.0444 32.8954 94.0276 33.5178C94.0107 34.1403 94.0276 34.7332 93.1309 34.7206C91.203 34.6954 89.2765 34.6954 87.3513 34.7206C86.5894 34.7206 86.2695 34.422 86.2821 33.6566C86.2989 31.9492 86.2821 30.2712 86.2821 28.5932Z" fill="white"/>
<path d="M162.019 22.6763C163.834 22.6763 163.779 22.6763 164.292 24.4047C165.16 27.315 166.119 30.1957 167.012 33.0976C167.163 33.6022 167.723 34.2583 166.89 34.641C165.905 35.0952 164.448 34.5905 164.2 33.7999C164.2 33.7662 164.2 33.7326 164.17 33.6989C163.501 31.4532 163.211 31.2808 160.832 31.5962C160.659 31.6023 160.492 31.6679 160.361 31.782C160.23 31.8961 160.142 32.0517 160.112 32.2228C160.028 32.5256 159.915 32.82 159.822 33.1186C159.329 34.6746 158.942 34.9059 157.359 34.6704C156.808 34.5863 156.61 34.3045 156.762 33.8041C157.634 30.9303 158.513 28.0621 159.397 25.1996C159.46 24.9977 159.548 24.8043 159.603 24.6024C160.091 22.6763 160.087 22.6763 162.019 22.6763ZM161.88 25.086C161.459 26.5075 161.11 27.664 160.79 28.829C160.668 29.2495 160.765 29.5986 161.329 29.5775C161.716 29.5775 162.099 29.5775 162.487 29.5775C162.966 29.5775 163.139 29.3126 163.025 28.9089C162.693 27.7229 162.318 26.5453 161.897 25.086H161.88Z" fill="white"/>
<path d="M147.842 30.5403V25.5232C147.842 25.0648 147.842 24.6106 147.842 24.1564C147.808 23.3153 147.943 22.7517 149.025 22.7559C150.106 22.7601 150.25 23.2438 150.241 24.1227C150.212 27.0666 150.241 30.0104 150.216 32.9543C150.216 33.4968 150.511 34.216 149.673 34.4641C148.587 34.7921 147.421 34.4431 146.991 33.6524C145.729 31.2931 144.331 28.9885 143.173 26.4694C142.928 26.9198 142.837 27.4387 142.917 27.9455C142.917 29.7665 142.917 31.5875 142.98 33.4127C143.013 34.3463 142.559 34.5188 141.751 34.5062C140.942 34.4935 140.488 34.3295 140.488 33.3959C140.517 30.246 140.488 27.0876 140.488 23.9419C140.488 23.147 140.841 22.8569 141.624 22.7769C143.056 22.6298 143.927 23.084 144.571 24.4592C145.573 26.4484 146.773 28.3366 147.842 30.5403Z" fill="white"/>
<path d="M75.7584 28.69C75.7584 27.0793 75.7584 25.4728 75.7584 23.8663C75.7584 23.3238 75.851 22.8023 76.4572 22.7602C78.263 22.634 80.0942 22.3397 81.8622 22.9537C83.6302 23.5677 84.5436 24.7705 84.5394 26.3181C84.5526 27.1817 84.2824 28.0258 83.7701 28.7215C83.2577 29.4172 82.5314 29.926 81.7022 30.1703C81.0378 30.3899 80.3435 30.5063 79.6438 30.5152C78.9324 30.5152 78.5493 30.8264 78.604 31.6128C78.6587 32.3067 78.604 33.0091 78.604 33.7156C78.604 34.4221 78.402 34.7922 77.6358 34.7039C77.3559 34.6763 77.0739 34.6763 76.7939 34.7039C76.0068 34.7712 75.7331 34.3675 75.7374 33.6357C75.771 31.9745 75.7584 30.3302 75.7584 28.69ZM78.5745 26.44C78.5745 28.3031 79.1049 28.7447 80.6162 28.1223C81.017 27.9426 81.3413 27.627 81.5316 27.2314C81.7219 26.8357 81.766 26.3856 81.6559 25.9606C81.4328 25.1195 80.4183 24.5854 79.2775 24.699C78.1368 24.8125 78.7261 25.683 78.5745 26.2298C78.5661 26.2996 78.5661 26.3702 78.5745 26.44Z" fill="white"/>
<path d="M68.1474 22.6636C69.7891 22.5332 71.1993 22.6425 72.4075 23.45C72.9934 23.8236 73.4517 24.3664 73.7217 25.0064C73.9916 25.6464 74.0603 26.3532 73.9187 27.0331C73.6408 28.7658 72.5379 29.8003 70.8668 30.2461C70.4232 30.3503 69.9732 30.4248 69.5197 30.469C68.0927 30.6583 68.0927 30.6541 68.0927 32.1512V33.3077C68.0927 34.6745 68.0464 34.6577 66.6615 34.7292C65.6975 34.7755 65.3608 34.4516 65.3734 33.4675C65.4197 30.3891 65.3734 27.3065 65.3944 24.2154C65.3944 22.8822 65.5207 22.7477 66.9014 22.6804C67.3813 22.6467 67.8738 22.6636 68.1474 22.6636ZM68.0632 26.52C68.2148 27.2139 67.6676 28.2737 69.0735 28.2485C70.3364 28.2485 71.052 27.6135 71.0646 26.4948C71.0646 25.313 70.4206 24.7495 69.1114 24.7327C67.6381 24.7116 68.2316 25.8219 68.0632 26.52Z" fill="white"/>
<path d="M45.168 28.686C45.168 27.0795 45.168 25.4688 45.168 23.8581C45.168 23.2525 45.3321 22.7941 46.0099 22.7478C47.6937 22.6342 49.3775 22.3861 51.0065 22.9202C52.9808 23.5553 53.8732 24.7875 53.7806 26.7052C53.6964 28.4589 52.4799 29.8425 50.6193 30.2631C50.0751 30.4003 49.5175 30.4779 48.9565 30.4944C48.1146 30.4944 47.841 30.8771 47.8789 31.6593C47.9168 32.3574 47.8789 33.0597 47.8789 33.7621C47.9084 34.7924 47.2096 34.7125 46.5192 34.7083C45.8289 34.7041 45.1553 34.7798 45.1722 33.7452C45.1932 32.0462 45.168 30.3682 45.168 28.686ZM47.8199 26.537C47.8199 28.3075 48.0641 28.5472 49.5669 28.2192C50.0142 28.1311 50.411 27.8758 50.6762 27.5053C50.9414 27.1348 51.0551 26.6771 50.9939 26.2258C50.8508 25.1744 49.9499 24.6066 48.6576 24.6865C47.3653 24.7664 47.9462 25.7001 47.8157 26.3225C47.8103 26.394 47.8117 26.4658 47.8199 26.537Z" fill="white"/>
<path d="M132.852 22.6763C133.797 22.6918 134.74 22.7917 135.668 22.9749C136.261 23.0616 136.815 23.3239 137.257 23.728C137.7 24.132 138.011 24.6592 138.151 25.2416C138.327 25.8184 138.316 26.4359 138.118 27.0057C137.921 27.5754 137.548 28.068 137.053 28.4126C136.43 28.8878 136.552 29.1444 136.964 29.6743C137.912 30.8981 138.046 32.4415 138.391 33.8798C138.397 33.9645 138.383 34.0494 138.351 34.1281C138.319 34.2067 138.269 34.2771 138.206 34.334C137.663 34.8134 136.03 34.3592 135.723 33.7031C135.302 32.8116 135.34 31.7896 134.881 30.9065C134.764 30.6502 134.589 30.4247 134.37 30.2479C134.151 30.0712 133.893 29.9482 133.618 29.8887C132.902 29.7331 132.443 29.9644 132.443 30.7761C132.443 31.6845 132.414 32.5929 132.443 33.5013C132.477 34.5148 131.816 34.4896 131.109 34.477C130.402 34.4643 129.762 34.477 129.77 33.4803C129.796 30.3009 129.8 27.1173 129.77 23.9379C129.77 23.1893 130.162 22.9286 130.764 22.8487C131.467 22.7604 132.166 22.7351 132.852 22.6763ZM132.431 26.4276C132.494 27.0416 132.102 28.0425 133.449 28.0173C134.624 27.9963 135.554 27.2645 135.588 26.314C135.622 25.3636 134.796 24.7454 133.588 24.6655C132.224 24.5688 132.456 25.494 132.46 26.4276H132.431Z" fill="white"/>
<path d="M112.427 34.8345C108.277 34.9354 105.881 32.1261 106.079 28.4169C106.256 25.145 108.479 22.8488 111.85 22.6091C112.723 22.5 113.608 22.5369 114.469 22.7184C114.94 22.8446 115.656 22.895 115.462 23.7572C115.155 25.124 115.016 25.2585 113.964 25.0188C113.527 24.8893 113.076 24.8158 112.621 24.8001C111.807 24.7902 111.015 25.0646 110.383 25.5761C109.75 26.0876 109.316 26.8038 109.156 27.601C108.803 29.1486 109.118 31.0832 110.79 31.9832C111.813 32.5383 112.894 32.4332 113.976 32.2775C114.86 32.1472 115.071 32.4626 115.26 33.2701C115.471 34.1616 115.075 34.4602 114.418 34.6074C113.759 34.7198 113.095 34.7956 112.427 34.8345Z" fill="white"/>
<path d="M169.205 28.7153C169.205 27.0751 169.251 25.4308 169.205 23.7906C169.159 22.5626 169.933 22.7182 170.72 22.6804C171.507 22.6425 172.029 22.8234 172.017 23.8117C171.975 27.092 171.979 30.3765 172.017 33.6568C172.017 34.7124 171.423 34.725 170.653 34.7124C169.883 34.6997 169.171 34.7839 169.209 33.64C169.247 31.9788 169.205 30.3344 169.205 28.7153Z" fill="white"/>
<path d="M155.629 33.1816C155.645 33.4026 155.611 33.6242 155.53 33.8306C155.45 34.037 155.325 34.223 155.164 34.3754C155.003 34.5277 154.81 34.6426 154.599 34.7118C154.389 34.781 154.165 34.8027 153.945 34.7755C152.914 34.7503 152.422 34.1783 152.455 33.0513C152.48 32.1345 153.297 31.3018 154.084 31.3691C154.522 31.4235 154.923 31.6398 155.209 31.9753C155.495 32.3108 155.645 32.7412 155.629 33.1816Z" fill="white"/>
</g>
<defs>
<clipPath id="clip0_81_7554">
<rect width="172" height="46" fill="white"/>
</clipPath>
</defs>
</svg>
